/* XPM */
static char * application_icon_xpm[] = {
"19 19 269 2",
"  	c None",
". 	c #00F7F7",
"+ 	c #00F8F7",
"@ 	c #05E6ED",
"# 	c #0DCDDF",
"$ 	c #15B5CF",
"% 	c #1C9FC1",
"& 	c #2388B5",
"* 	c #2972A7",
"= 	c #2C609A",
"- 	c #27568F",
"; 	c #224C83",
"> 	c #1F4277",
", 	c #1A396B",
"' 	c #163163",
") 	c #152F5F",
"! 	c #142B5B",
"~ 	c #122958",
"{ 	c #102555",
"] 	c #00F7F8",
"^ 	c #03EFF2",
"/ 	c #0BD6E3",
"( 	c #11BED5",
"_ 	c #1AA5C6",
": 	c #2090B9",
"< 	c #2779AB",
"[ 	c #2D639E",
"} 	c #295A92",
"| 	c #244F87",
"1 	c #20467B",
"2 	c #1B3C6F",
"3 	c #173364",
"4 	c #153060",
"5 	c #142D5D",
"6 	c #122959",
"7 	c #102755",
"8 	c #0F2452",
"9 	c #07DFE9",
"0 	c #0FC6D9",
"a 	c #17AECB",
"b 	c #1D98BE",
"c 	c #2581B0",
"d 	c #2B6BA3",
"e 	c #2A5D96",
"f 	c #26538B",
"g 	c #214980",
"h 	c #1D3F74",
"i 	c #183668",
"j 	c #163162",
"k 	c #142E5E",
"l 	c #132A5A",
"m 	c #112857",
"n 	c #102453",
"o 	c #0E214F",
"p 	c #05E7ED",
"q 	c #FFFFFF",
"r 	c #9BDADB",
"s 	c #2C609B",
"t 	c #1F4378",
"u 	c #1A396C",
"v 	c #142C5C",
"w 	c #122858",
"x 	c #112654",
"y 	c #0F2251",
"z 	c #0D1F4D",
"A 	c #02EFF2",
"B 	c #0AD6E4",
"C 	c #24C3D8",
"D 	c #E9F7FA",
"E 	c #E9F4F8",
"F 	c #3684B3",
"G 	c #2D649F",
"H 	c #295993",
"I 	c #245087",
"J 	c #1B3C70",
"K 	c #163264",
"L 	c #153061",
"M 	c #122A59",
"N 	c #112755",
"O 	c #0F2352",
"P 	c #0E214E",
"Q 	c #0D1D4A",
"R 	c #08DFE8",
"S 	c #0FC7DA",
"T 	c #16AECB",
"U 	c #2C6CA3",
"V 	c #2A5D97",
"W 	c #26548B",
"X 	c #214A7F",
"Y 	c #193668",
"Z 	c #152D5F",
"` 	c #122857",
" .	c #0F214F",
"..	c #0D1F4B",
"+.	c #0C1B48",
"@.	c #0CCFDF",
"#.	c #14B6D1",
"$.	c #3AACCB",
"%.	c #EEF6F9",
"&.	c #EEF4F8",
"*.	c #4372A6",
"=.	c #28578F",
"-.	c #234D83",
";.	c #1E4478",
">.	c #152F60",
",.	c #132C5C",
"'.	c #0E1F4D",
").	c #0C1C4A",
"!.	c #0A1946",
"~.	c #11BFD6",
"{.	c #18A7C7",
"].	c #255088",
"^.	c #20467C",
"/.	c #0E204F",
"(.	c #0C1E4B",
"_.	c #0B1A47",
":.	c #0A1743",
"<.	c #17AFCC",
"[.	c #1D99BE",
"}.	c #2482B1",
"|.	c #2B6DA4",
"1.	c #2B5D98",
"2.	c #27548C",
"3.	c #224A80",
"4.	c #1D4175",
"5.	c #183669",
"6.	c #132A5B",
"7.	c #102553",
"8.	c #0E1E4C",
"9.	c #0A1844",
"0.	c #091541",
"a.	c #1AA0C3",
"b.	c #228AB6",
"c.	c #2974A8",
"d.	c #2D619B",
"e.	c #285790",
"f.	c #234D84",
"g.	c #1A3A6C",
"h.	c #163263",
"i.	c #0E204D",
"j.	c #0C1D4A",
"k.	c #0B1946",
"l.	c #091642",
"m.	c #08133E",
"n.	c #1F92BB",
"o.	c #267CAD",
"p.	c #2D65A0",
"q.	c #295B93",
"r.	c #255188",
"s.	c #20477C",
"t.	c #1C3E70",
"u.	c #173365",
"v.	c #12295A",
"w.	c #112756",
"x.	c #0F214E",
"y.	c #0D1D4B",
"z.	c #0C1A47",
"A.	c #0A1744",
"B.	c #081440",
"C.	c #07113C",
"D.	c #2483B1",
"E.	c #2A6DA4",
"F.	c #E7EDF3",
"G.	c #4B72A0",
"H.	c #F5F7F9",
"I.	c #F4F6F9",
"J.	c #415A83",
"K.	c #E3E7ED",
"L.	c #142A5B",
"M.	c #112454",
"N.	c #F4F4F6",
"O.	c #949AAE",
"P.	c #07123D",
"Q.	c #060F39",
"R.	c #2875A9",
"S.	c #2C619C",
"T.	c #B3C4D8",
"U.	c #A9BACF",
"V.	c #D3DAE5",
"W.	c #D3D9E3",
"X.	c #A4AFC2",
"Y.	c #ABB5C6",
"Z.	c #102655",
"`.	c #0F2351",
" +	c #384368",
".+	c #F1F1F4",
"++	c #07133E",
"@+	c #06103B",
"#+	c #050D37",
"$+	c #2D66A0",
"%+	c #295B94",
"&+	c #7E99B9",
"*+	c #F9FAFB",
"=+	c #9DABC2",
"-+	c #9CA8BD",
";+	c #F9F9FB",
">+	c #73829E",
",+	c #132959",
"'+	c #122656",
")+	c #102352",
"!+	c #FDFDFE",
"~+	c #767D95",
"{+	c #050E38",
"]+	c #040B35",
"^+	c #2B5E98",
"/+	c #27548D",
"(+	c #476996",
"_+	c #667A9C",
":+	c #657697",
"<+	c #3A4E76",
"[+	c #112858",
"}+	c #112554",
"|+	c #0F2250",
"1+	c #0E1E4D",
"2+	c #0A1945",
"3+	c #323C60",
"4+	c #F0F1F4",
"5+	c #060F3A",
"6+	c #040B36",
"7+	c #030932",
"8+	c #285890",
"9+	c #234E85",
"0+	c #20467A",
"a+	c #EFF1F5",
"b+	c #2D4673",
"c+	c #2D4470",
"d+	c #EDEFF3",
"e+	c #112655",
"f+	c #0D204D",
"g+	c #F5F6F7",
"h+	c #9498AA",
"i+	c #050D38",
"j+	c #040A34",
"k+	c #020630",
"l+	c #255189",
"m+	c #20487D",
"n+	c #1C3E72",
"o+	c #173466",
"p+	c #152D5E",
"q+	c #0C1B47",
"r+	c #081540",
"s+	c #060E39",
"t+	c #040B34",
"u+	c #030731",
"v+	c #01052D",
"w+	c #224B82",
"x+	c #1E4175",
"y+	c #193869",
"z+	c #142E5F",
"A+	c #132B5B",
"B+	c #102454",
"C+	c #0D1F4C",
"D+	c #0C1C48",
"E+	c #0B1845",
"F+	c #081541",
"G+	c #08123D",
"H+	c #040C36",
"I+	c #030832",
"J+	c #02062F",
"K+	c #00032B",
"L+	c #1F447A",
"M+	c #1B3B6E",
"N+	c #173264",
"O+	c #091643",
"P+	c #08133F",
"Q+	c #07103B",
"R+	c #040A33",
"S+	c #020730",
"T+	c #00042C",
". + . @ # $ % & * = - ; > , ' ) ! ~ { ",
". ] ^ / ( _ : < [ } | 1 2 3 4 5 6 7 8 ",
"] . 9 0 a b c d e f g h i j k l m n o ",
". p q r r q * s q q t u q q v w x y z ",
"A B C D E F G H I q J K L q M N O P Q ",
"R S T r r U V W X q Y j Z q ` n  ...+.",
"@.#.$.%.&.*.=.-.;.q K >.,.q { y '.).!.",
"~.{.q r r q ].^.q q q 5 q q q /.(._.:.",
"<.[.}.|.1.2.3.4.5.j k 6.m 7. .8.+.9.0.",
"a.b.c.d.e.f.t g.h.>.v ~ { y i.j.k.l.m.",
"n.o.p.q.r.s.t.u.L 5 v.w.8 x.y.z.A.B.C.",
"D.E.F.G.H.I.J.K.k L.m M.q q N.O.0.P.Q.",
"R.S.T.U.V.W.X.Y.v 6 Z.`.q ). +.+++@+#+",
"$+%+&+*+=+-+;+>+,+'+)+P q q !+~+P.{+]+",
"^+/+(+q _+:+q <+[+}+|+1+q 2+3+4+5+6+7+",
"8+9+0+a+b+c+d+l e+`.f+).q q g+h+i+j+k+",
"l+m+n+o+L p+l w.n o (.q+A.r+C.s+t+u+v+",
"w+x+y+j z+A+w B+|+C+D+E+F+G+5+H+I+J+K+",
"L+M+N+>.,.~ e+O i.Q k.O+P+Q+#+R+S+T+K+"};
