/* XPM */
static char * clangdoc_xpm[] = {
"12 16 28 1",
" 	c #FFFFFF",
".	c #B3DFE3",
"+	c #00C5D7",
"@	c #9D9D9D",
"#	c #2E2E2E",
"$	c #090909",
"%	c #232323",
"&	c #9F9F9F",
"*	c #989898",
"=	c #C6C6C6",
"-	c #F6F6F6",
";	c #DCDCDC",
">	c #606060",
",	c #1D2525",
"'	c #8FB2B5",
")	c #0A0A0A",
"!	c #F5F5F5",
"~	c #2A2A2A",
"{	c #CBCBCB",
"]	c #6B8587",
"^	c #8CAEB1",
"/	c #ADD8DC",
"(	c #9AC0C4",
"_	c #616161",
":	c #9C9C9C",
"<	c #2D2D2D",
"[	c #242424",
"}	c #A0A0A0",
"   ........+",
"  .        +",
" .         +",
".          +",
". ..... .. +",
".   @#$%&  +",
".  *#=-;>  +",
". .,' .... +",
".  )!      +",
".  ~{      +",
". .]#^/(_. +",
".   :<$[}  +",
".          +",
". .. .. .. +",
".          +",
"++++++++++++"};
