/* XPM */
static char * makefiledoc_xpm[] = {
"12 16 22 1",
" 	c #FFFFFF",
".	c #B3DFE3",
"+	c #00C5D7",
"@	c #000000",
"#	c #A9A9A9",
"$	c #8C8C8C",
"%	c #3B3B3B",
"&	c #FEFEFE",
"*	c #FAFAFA",
"=	c #2F2F2F",
"-	c #4D5F61",
";	c #B0B0B0",
">	c #708B8E",
",	c #556A6C",
"'	c #DCDCDC",
")	c #363636",
"!	c #E3E3E3",
"~	c #505050",
"{	c #6A6A6A",
"]	c #565656",
"^	c #88AAAD",
"/	c #8AABAE",
"   ........+",
"  .        +",
" .         +",
".          +",
". ..... .. +",
".  @#   $@ +",
".  @%& *=@ +",
". .@-;.>,@ +",
".  @')&=!@ +",
".  @ ~{] @ +",
". .@ ^@/ @ +",
".  @     @ +",
".          +",
". .. .. .. +",
".          +",
"++++++++++++"};
