/* XPM */
static char * newdoc_xpm[] = {
"12 16 3 1",
" 	c #FFFFFF",
".	c #B3DFE3",
"+	c #00C5D7",
"   ........+",
"  .        +",
" .         +",
".          +",
". ..... .. +",
".          +",
".          +",
". ... .... +",
".          +",
".          +",
". .. ... . +",
".          +",
".          +",
". .. .. .. +",
".          +",
"++++++++++++"};
