/* XPM */
static char * textfiledoc_xpm[] = {
"12 16 4 1",
" 	c #FFFFFF",
".	c #B3DFE3",
"+	c #00C5D7",
"@	c #000000",
"   ........+",
"  .        +",
" .         +",
".          +",
". .@@@@@.. +",
".    @     +",
".    @     +",
". ...@.... +",
".    @     +",
".    @     +",
". .. @.. . +",
".          +",
".          +",
". .. .. .. +",
".          +",
"++++++++++++"};
