/* XPM */
static char * icon_warn_xpm[] = {
"36 36 28 1",
" 	c None",
".	c #FFF800",
"+	c #0E0F00",
"@	c #000000",
"#	c #232600",
"$	c #242700",
"%	c #3A3E00",
"&	c #3B3F00",
"*	c #505600",
"=	c #515700",
"-	c #676E00",
";	c #686F00",
">	c #7D8500",
",	c #7E8600",
"'	c #939D00",
")	c #949E00",
"!	c #AAB500",
"~	c #ABB600",
"{	c #C0CD00",
"]	c #C1CE00",
"^	c #D6E400",
"/	c #D7E500",
"(	c #A5B000",
"_	c #151700",
":	c #161800",
"<	c #A8B300",
"[	c #141600",
"}	c #A2AD00",
"                                    ",
"                                    ",
"                                    ",
"                 ..                 ",
"                ....                ",
"               ......               ",
"               ......               ",
"              ........              ",
"              ........              ",
"             ..........             ",
"             ...+@@+...             ",
"            ....#@@$....            ",
"           .....%@@&.....           ",
"           .....*@@=.....           ",
"          ......-@@;......          ",
"          ......>@@,......          ",
"         .......'@@).......         ",
"         .......!@@~.......         ",
"        ........{@@]........        ",
"        ........^@@/........        ",
"       ..........@@..........       ",
"      ...........@@...........      ",
"      ...........@@...........      ",
"     ..........................     ",
"     ...........(_:<...........     ",
"    ............[@@_............    ",
"    ............[@@_............    ",
"   .............}[_(.............   ",
"   ..............................   ",
"  ................................  ",
"  ................................  ",
" .................................. ",
"                                    ",
"                                    ",
"                                    ",
"                                    "};
