/* XPM */
static char * icon_thumbdown_xpm[] = {
"36 36 4 1",
" 	c None",
".	c #D00000",
"+	c #F08C8C",
"@	c #FFFFFF",
"               ......               ",
"           ..............           ",
"         ..................         ",
"        ....................        ",
"      ........................      ",
"     ..........................     ",
"    ............................    ",
"    ............................    ",
"   ..............................   ",
"  ................................  ",
"  ................................  ",
" ........+@@@@@@+.................. ",
" ........@@@@@@@@@@+............... ",
" ........@@@@@@@@@@@@@@@@@@@@...... ",
" .......++++@@@@@@@@@@@@@@@@@...... ",
".......+@@@@@@@@@@@@@@@@@@@@@.......",
".......@@@@@@@@@@@@@@@@@@@@@@.......",
".......++++@@@@@@@@@@@@@@@@@@.......",
".......@@@@@@@@@@@@@@@@@@@@@@.......",
".......@@@@@@@@@@@@@@@@@@@@@@.......",
".......++++@@@@@@@@@@@@@@@@@@.......",
" ......@@@@@@@@@@@@@@@@@@@@@@...... ",
" ......@@@@@@@@@@@@@@+............. ",
" ......+@@@@@@@@@@@+............... ",
" ............+@@@@@................ ",
"  ............@@@@+...............  ",
"  ............@@@@................  ",
"   ...........@@@@...............   ",
"    ..........@@@@..............    ",
"    ..........@@@@..............    ",
"     .........@@@@.............     ",
"      ........+@@+............      ",
"        ....................        ",
"         ..................         ",
"           ..............           ",
"               ......               "};
