/* XPM */
static char * icon_stop_xpm[] = {
"36 36 70 1",
" 	c None",
".	c #D00000",
"+	c #D83030",
"@	c #F4C6C6",
"#	c #FDF9F9",
"$	c #FDF6F6",
"%	c #F7D7D7",
"&	c #DF5656",
"*	c #FFFFFF",
"=	c #DC4545",
"-	c #F3C3C3",
";	c #DC4646",
">	c #FEFEFE",
",	c #FBECEC",
"'	c #EEA6A6",
")	c #D41717",
"!	c #F7D4D4",
"~	c #E88787",
"{	c #E15E5E",
"]	c #EA8F8F",
"^	c #E26767",
"/	c #E05858",
"(	c #FEFDFD",
"_	c #FAE7E7",
":	c #E46E6E",
"<	c #E46F6F",
"[	c #FAE9E9",
"}	c #E15D5D",
"|	c #EFADAD",
"1	c #F2BBBB",
"2	c #FEFBFB",
"3	c #DB3D3D",
"4	c #D00101",
"5	c #F4C4C4",
"6	c #DD4949",
"7	c #DE4C4C",
"8	c #D20D0D",
"9	c #F2BCBC",
"0	c #FBEDED",
"a	c #D62121",
"b	c #D10909",
"c	c #D10A0A",
"d	c #D31414",
"e	c #D41919",
"f	c #E57373",
"g	c #D21010",
"h	c #E88383",
"i	c #F5CDCD",
"j	c #F6CFCF",
"k	c #F9E3E3",
"l	c #DA3B3B",
"m	c #D10606",
"n	c #D72A2A",
"o	c #FEFAFA",
"p	c #DD4848",
"q	c #DD4A4A",
"r	c #DC4444",
"s	c #DC4242",
"t	c #D82E2E",
"u	c #D00303",
"v	c #E98888",
"w	c #E98D8D",
"x	c #F5CECE",
"y	c #FAE6E6",
"z	c #E46D6D",
"A	c #FAE8E8",
"B	c #EDA2A2",
"C	c #F8DEDE",
"D	c #F3C1C1",
"E	c #D82D2D",
"          ................          ",
"         ..................         ",
"        ....................        ",
"       ......................       ",
"      ........................      ",
"     ..........................     ",
"    ............................    ",
"   ..............................   ",
"  ................................  ",
" .................................. ",
"....................................",
"....................................",
"....................................",
"....................................",
".+@#$%&..*******...=-$$-;...***>,').",
".!*~{]^..///**//..;(_:<[(;..**/}|*1.",
".2*34.......**....5*6..7*-..**..8*#.",
".9**0'a.....**....$*b..c*$..**def*%.",
".ghi(*j.....**....$*b..c*$..*****kl.",
".m..n*o.....**....5*p..q*-..**rstu..",
".kv{w*x.....**....;(yz:A(;..**......",
".BCo$DE.....**.....;-$$5;...**......",
"....................................",
"....................................",
"....................................",
"....................................",
" .................................. ",
"  ................................  ",
"   ..............................   ",
"    ............................    ",
"     ..........................     ",
"      ........................      ",
"       ......................       ",
"        ....................        ",
"         ..................         ",
"          ................          "};
