/* XPM */
static char * icon_death_xpm[] = {
"36 36 6 1",
" 	c None",
".	c #000000",
"+	c #C0C0C0",
"@	c #FFFFFF",
"#	c #808080",
"$	c #A0A0A0",
"               ......               ",
"           ..............           ",
"         ..................         ",
"        ......+@@@@@@+......        ",
"      .......+@@@@@@@@+.......      ",
"     ........@@@@@@@@@@........     ",
"    ........#@@@@@@@@@@#........    ",
"    ........+@@@@@@@@@@+........    ",
"   .........@@.+@@@@+.@@.........   ",
"  ..........@@..@@@@..@@..........  ",
"  ..........@@..@@@@..@@..........  ",
" ...........@@..@@@@..@@........... ",
" ...........+@+.@@@@.+@+........... ",
" ...........#@@@@@@@@@@#........... ",
" ............@@@@@@@@@@............ ",
".............@@@@@@@@@@.............",
".............+@@@@@@@@+.............",
".............#@@$..$@@#.............",
"..............@@....@@..............",
"..............@@....@@..............",
"..............+@#..#@+..............",
" .............$@#..#@$............. ",
" .............#@$..$@#............. ",
" ..............@+..+@.............. ",
" ..............@@..@@.............. ",
"  .............@@..@@.............  ",
"  .............+@..@+.............  ",
"   ............#@..@#............   ",
"    ............@##@............    ",
"    ............@@@@............    ",
"     ...........+@@+...........     ",
"      ...........++...........      ",
"        ....................        ",
"         ..................         ",
"           ..............           ",
"               ......               "};
