/* XPM */
static char * icon_what_xpm[] = {
"36 36 42 1",
" 	c None",
".	c #1040FF",
"+	c #2828D7",
"@	c #7676E5",
"#	c #B4B4F1",
"$	c #E0E0F9",
"%	c #F7F7FD",
"&	c #F8F8FD",
"*	c #E1E1F9",
"=	c #A9A9EF",
"-	c #4040DB",
";	c #FFFFFF",
">	c #3737DA",
",	c #4141DB",
"'	c #EAEAFB",
")	c #8686E8",
"!	c #5252DF",
"~	c #6767E2",
"{	c #5050DE",
"]	c #1E1ED5",
"^	c #BBBBF2",
"/	c #EEEEFB",
"(	c #F9F9FD",
"_	c #3232D9",
":	c #9191EA",
"<	c #9E9EED",
"[	c #4C4CDE",
"}	c #FBFBFE",
"|	c #F4F4FC",
"1	c #2626D7",
"2	c #2B2BD7",
"3	c #9999EC",
"4	c #FDFDFE",
"5	c #4545DC",
"6	c #EFEFFC",
"7	c #C4C4F4",
"8	c #7979E6",
"9	c #102DED",
"0	c #4F4FDE",
"a	c #E8E8FA",
"b	c #4D4DDE",
"c	c #E9E9FA",
"               ......               ",
"           ..............           ",
"         ..................         ",
"        ....................        ",
"      ........................      ",
"     ..........................     ",
"    ............................    ",
"    ............................    ",
"   ..............................   ",
"  ................................  ",
"  ............+@#$%&*=-...........  ",
" .............;;$>.,';;)........... ",
" .............;;!...~;;;{.......... ",
" .............;;....];;;^.......... ",
" ....................;;;/.......... ",
".....................;;;(...........",
"...................._;;;*...........",
"....................:;;;<...........",
"...................[};;|1...........",
".................234;;/5............",
".................;;6789.............",
" ................;;................ ",
" ................;;................ ",
" .................................. ",
" ...............0aab............... ",
"  ..............c;;a..............  ",
"  ..............c;;a..............  ",
"   .............!cc0.............   ",
"    ............................    ",
"    ............................    ",
"     ..........................     ",
"      ........................      ",
"        ....................        ",
"         ..................         ",
"           ..............           ",
"               ......               "};
