/* XPM */
static char * icon_what_bold_xpm[] = {
"36 36 31 1",
" 	c None",
".	c #FFF800",
"+	c #C0CD00",
"@	c #6B7200",
"#	c #2D3000",
"$	c #090A00",
"%	c #050600",
"&	c #1B1D00",
"*	c #505600",
"=	c #BCC800",
"-	c #000000",
";	c #030400",
">	c #A8B300",
",	c #393D00",
"'	c #9CA600",
")	c #D9E700",
"!	c #858E00",
"~	c #2B2E00",
"{	c #A0AA00",
"]	c #1C1E00",
"^	c #C9D600",
"/	c #0F1000",
"(	c #788000",
"_	c #202300",
":	c #3C4000",
"<	c #6A7100",
"[	c #232600",
"}	c #FAF600",
"|	c #191B00",
"1	c #B7C300",
"2	c #010200",
"                                    ",
"                                    ",
"                                    ",
"                 ..                 ",
"                ....                ",
"               ......               ",
"               ......               ",
"              ........              ",
"              ........              ",
"             ..........             ",
"             ..........             ",
"            ............            ",
"           ...+@#$%&*=...           ",
"           ...-------;>..           ",
"          ....,').!---~...          ",
"          .........---%...          ",
"         .........{---]....         ",
"         ........^/---(....         ",
"        ........._---:......        ",
"        ........<---[}......        ",
"       .........|---1........       ",
"      ..........2---..........      ",
"      ........................      ",
"     ...........----...........     ",
"     ...........----...........     ",
"    ............----............    ",
"    ............----............    ",
"   ..............................   ",
"   ..............................   ",
"  ................................  ",
"  ................................  ",
" .................................. ",
"                                    ",
"                                    ",
"                                    ",
"                                    "};
