/* XPM */
static char * icon_barney_xpm[] = {
"36 36 4 1",
" 	c None",
".	c #C000C0",
"+	c #32C124",
"@	c #000000",
"                                    ",
"                                    ",
"            .............           ",
"          .................         ",
"        .............++......       ",
"       .............++++......      ",
"      ..............++++.......     ",
"      ..............++@@........    ",
"     ................+@@.........   ",
"     .............................  ",
"    ..............................  ",
"    ..............................  ",
"    ..............................  ",
"   ...............................  ",
"   ..............................   ",
"   .............................    ",
"   ................... .......      ",
"   ....................             ",
"   ...........................      ",
"   ............................     ",
"   ............................     ",
"    ...........................     ",
"    ...........................     ",
"     ..........................     ",
"     .........................      ",
"      ..................            ",
"      .............++++.            ",
"      ............+++++.            ",
"      ............+++++..           ",
"      ...........+++++++.           ",
"      ...........+++++++.           ",
"      ..........++++++++.           ",
"      ..........++++++++.           ",
"      ..........++++++++.           ",
"       .........+++++++..           ",
"                                    "};
