/* XPM */
static char * icon_splat_xpm[] = {
"36 36 56 1",
" 	c None",
".	c #10C010",
"+	c #FFFFFF",
"@	c #ABEFAB",
"#	c #5DE15D",
"$	c #5EE15E",
"%	c #AAEFAA",
"&	c #39DA39",
"*	c #BEF3BE",
"=	c #27D727",
"-	c #BFF3BF",
";	c #38DA38",
">	c #B2F0B2",
",	c #F8FDF8",
"'	c #80E780",
")	c #81E781",
"!	c #F9FDF9",
"~	c #B1F0B1",
"{	c #6EE46E",
"]	c #F0FCF0",
"^	c #DAF8DA",
"/	c #43DC43",
"(	c #44DC44",
"_	c #F1FCF1",
":	c #6FE46F",
"<	c #15D215",
"[	c #9EED9E",
"}	c #FEFEFE",
"|	c #A1EDA1",
"1	c #17D417",
"2	c #36D936",
"3	c #CAF5CA",
"4	c #CFF6CF",
"5	c #3ADA3A",
"6	c #63E263",
"7	c #EAFBEA",
"8	c #EEFBEE",
"9	c #6BE36B",
"0	c #69E369",
"a	c #EDFBED",
"b	c #70E470",
"c	c #CEF5CE",
"d	c #D2F6D2",
"e	c #3EDB3E",
"f	c #A0EDA0",
"g	c #A3EEA3",
"h	c #18D418",
"i	c #D3F6D3",
"j	c #D4F7D4",
"k	c #F7FDF7",
"l	c #7AE67A",
"m	c #7BE67B",
"n	c #BBF2BB",
"o	c #23D623",
"p	c #24D624",
"q	c #5CE05C",
"               ......               ",
"           ..............           ",
"         ..................         ",
"        ....................        ",
"      ........................      ",
"     ..........................     ",
"    ............................    ",
"    ............................    ",
"   ..............+++.............   ",
"  ...............+++..............  ",
"  ...............+++..............  ",
" .........@#.....+++.....$%........ ",
" ........&++*=...+++...=-++;....... ",
" ........>+++,'..+++..)!+++~....... ",
" ........{]++++^/+++(^++++_:....... ",
"..........<[}+++++++++++}|1.........",
"............23+++++++++45...........",
"..............67+++++89.............",
"..............67+++++89.............",
"..............0a+++++_b.............",
"............5c+++++++++de...........",
" .........1f}+++}+++}++++gh........ ",
" ........{]++++i5+++5j++++_:....... ",
" ........>+++kl..+++..mk+++~....... ",
" ........&++no...+++...pn++;....... ",
"  ........@q.....+++.....#%.......  ",
"  ...............+++..............  ",
"   ..............+++.............   ",
"    .............+++............    ",
"    ............................    ",
"     ..........................     ",
"      ........................      ",
"        ....................        ",
"         ..................         ",
"           ..............           ",
"               ......               "};
