/* XPM */
static char * icon_bear_xpm[] = {
"36 36 6 1",
" 	c None",
".	c #C0C0C0",
"+	c #B39C8C",
"@	c #B3805A",
"#	c #000000",
"$	c #CABA84",
"               ......               ",
"           ..+++....+++..           ",
"         ....@@@....@@@....         ",
"        .....@@@++++@@@.....        ",
"      ......+@@@@@@@@@@+......      ",
"     .......+@@@@@@@@@@+.......     ",
"    ........+@@##@@##@@+........    ",
"    ........+@@#$@@#$@@+........    ",
"   .........+@@@@@@@@@@+.........   ",
"  ...........@@@@##@@@@...........  ",
"  ...........+@@@$$@@@+...........  ",
" ..............+@@@@+.............. ",
" ...............@@@@............... ",
" .......+@@@@@@@@@@@@@@@@@@+....... ",
" .......$@@@@@@@$$$$@@@@@@@$....... ",
"........$@@@@@@$$$$$$@@@@@@$........",
"........$@@@@@@$$$$$$@@@@@@$........",
"........+@@@@@@$$$$$$@@@@@@+........",
".............@@$$$$$$@@.............",
".............@@$$$$$$@@.............",
".............@@$$$$$$@@.............",
" ............@@$$$$$$@@............ ",
" ............@@@$$$$@@@............ ",
" ............@@@@@@@@@@............ ",
" ............@@@@..@@@@............ ",
"  ..........+@@@@..@@@@+..........  ",
"  ..........@@@@+..+@@@@..........  ",
"   .........@@@@....@@@@.........   ",
"    .......+@@@@....@@@@+.......    ",
"    .......@@@@+....+@@@@.......    ",
"     ......@@@@......@@@@......     ",
"      ......@@@......@@@......      ",
"        ....................        ",
"         ..................         ",
"           ..............           ",
"               ......               "};
