/* XPM */
static char * icon_thumbup_xpm[] = {
"36 36 4 1",
" 	c None",
".	c #10C010",
"+	c #9EEF9E",
"@	c #FFFFFF",
"               ......               ",
"           ..............           ",
"         ..................         ",
"        ....................        ",
"      ........................      ",
"     .........+@@+.............     ",
"    ..........@@@@..............    ",
"    ..........@@@@..............    ",
"   ...........@@@@...............   ",
"  ............@@@@................  ",
"  ............@@@@+...............  ",
" ............+@@@@@................ ",
" ......+@@@++@@@@@@+............... ",
" ......@@@@@@+@@@@@@@+............. ",
" ......+@@@@@+@@@@@@@@@@@@@@@...... ",
".......@+++++@@@@@@@+@@@@@@@@.......",
".......@@@@@@+@@@@@+@@@@@@@@@.......",
".......+@@@@@+@@@@+@@@@@@@@@@.......",
"........+++++@@@++@@@@@@@@@@@.......",
".......+@@@@@+@@@@@@@@@@@@@@@.......",
".......+@@@@++@@@@@@@@@@@@@@@.......",
" .......++++@@@@@@@@@@@@@@@@@...... ",
" .......@@@@+@@@@@@+............... ",
" .......+@@@+@@@+.................. ",
" .................................. ",
"  ................................  ",
"  ................................  ",
"   ..............................   ",
"    ............................    ",
"    ............................    ",
"     ..........................     ",
"      ........................      ",
"        ....................        ",
"         ..................         ",
"           ..............           ",
"               ......               "};
