/* XPM */
static char * icon_finger_xpm[] = {
"36 36 5 1",
" 	c None",
".	c #D00000",
"+	c #FF4040",
"@	c #FFFFFF",
"#	c #7F4040",
"                                    ",
"                                    ",
"                                    ",
"                 ..                 ",
"                ....                ",
"               ......               ",
"               ......               ",
"              ........              ",
"              ........              ",
"             ....++....             ",
"             ....@@....             ",
"            .....@@.....            ",
"           ......@@......           ",
"           ......@@......           ",
"          .......@@.......          ",
"          .......@@.......          ",
"         ........@@........         ",
"         .....+@#@@#@@.....         ",
"        ......@@#@@#@@#@....        ",
"        .....+@@@@@@@@@@....        ",
"       .....@@@@@@@@@@@@.....       ",
"      .....@@@@@@@@@@@@@......      ",
"      .....@@@@@@@@@@@@@......      ",
"     ......+@@@@@@@@@@@+.......     ",
"     .......@@@@@@@@@@@........     ",
"    .........@@@@@@@@@@.........    ",
"    ..........@@@@@@@@+.........    ",
"   ...........@@@@@@@@...........   ",
"   ...........@@@@@@@@...........   ",
"  ............@@@@@@@@............  ",
"  ................................  ",
" .................................. ",
"                                    ",
"                                    ",
"                                    ",
"                                    "};
