/* XPM */
static char * icon_wtf_xpm[] = {
"36 36 109 2",
"  	c None",
". 	c #D00000",
"+ 	c #C000C0",
"@ 	c #C000BD",
"# 	c #C200A1",
"$ 	c #CB0039",
"% 	c #CD001E",
"& 	c #C100B0",
"* 	c #A70000",
"= 	c #5C0000",
"- 	c #270000",
"; 	c #080000",
"> 	c #040000",
", 	c #170000",
"' 	c #7E0059",
") 	c #C100AA",
"! 	c #000000",
"~ 	c #330033",
"{ 	c #BF00BF",
"] 	c #BA00B9",
"^ 	c #9D0030",
"/ 	c #310000",
"( 	c #870000",
"_ 	c #BC0000",
": 	c #C80000",
"< 	c #730000",
"[ 	c #9A009A",
"} 	c #500050",
"| 	c #250000",
"1 	c #DB400C",
"2 	c #EFAB22",
"3 	c #FBEC2F",
"4 	c #FEFA32",
"5 	c #F8DC2C",
"6 	c #E8831A",
"7 	c #D10701",
"8 	c #C70000",
"9 	c #BD00BD",
"0 	c #050005",
"a 	c #FFFF33",
"b 	c #EC991E",
"c 	c #8A0000",
"d 	c #180000",
"e 	c #F3C226",
"f 	c #E05911",
"g 	c #D41804",
"h 	c #E15D12",
"i 	c #FCF030",
"j 	c #AE0000",
"k 	c #0D0000",
"l 	c #680000",
"m 	c #FBEF2F",
"n 	c #1C0000",
"o 	c #340000",
"p 	c #CB0000",
"q 	c #D20E02",
"r 	c #F3BE26",
"s 	c #B78F1C",
"t 	c #1E0000",
"u 	c #C20000",
"v 	c #D41604",
"w 	c #F6D22A",
"x 	c #F0B023",
"y 	c #1C0701",
"z 	c #9F0000",
"A 	c #F1B624",
"B 	c #EC9B1F",
"C 	c #D00200",
"D 	c #010000",
"E 	c #494949",
"F 	c #F2BFBF",
"G 	c #FDF8F8",
"H 	c #FCEFEF",
"I 	c #F0B0B0",
"J 	c #D62121",
"K 	c #FF849B",
"L 	c #FE8299",
"M 	c #F76E82",
"N 	c #DE272E",
"O 	c #D10901",
"P 	c #F0B3B3",
"Q 	c #DB3D3D",
"R 	c #D10808",
"S 	c #DE4D4D",
"T 	c #FFFFFF",
"U 	c #F4C8C8",
"V 	c #D71418",
"W 	c #FB798E",
"X 	c #D41818",
"Y 	c #E53D48",
"Z 	c #F97489",
"` 	c #D20E0E",
" .	c #F3BEBE",
"..	c #F0B2B2",
"+.	c #DC2329",
"@.	c #FE839A",
"#.	c #FD7F96",
"$.	c #DB2126",
"%.	c #D41616",
"&.	c #F6D2D2",
"*.	c #F1B5B5",
"=.	c #F56A7C",
"-.	c #E33741",
";.	c #F1B6B6",
">.	c #EC9B9B",
",.	c #D00202",
"'.	c #D10304",
").	c #FEFAFA",
"!.	c #D10909",
"                                                                        ",
"                                                                        ",
"                                                                        ",
"                                  . .                                   ",
"                                . . . .                                 ",
"                              . . . . . .                               ",
"                              . . . . . .                               ",
"                            . . . . . . . .                             ",
"                            . . . . . . . .                             ",
"                          . . . . . . . . . .                           ",
"                          . . . . . + + @ # $                           ",
"                        . . . . . . . . % + & .                         ",
"                      . . . * = - ; > , ' + ) . .                       ",
"                      . . . ! ! ! ! ! ~ { ] ^ . .                       ",
"                    . . . . / ( _ : < [ + } | . . .                     ",
"                    1 2 3 4 5 6 7 . 8 9 + 0 > . . .                     ",
"                  . a a a a a a b . c ! ! ! d . . . .                   ",
"                  . e f g 7 h a i j k + + ! l . . . .                   ",
"                . . . . . . g a m n ! + + o p . . . . .                 ",
"                . . . . . q r a s ! ! ! t u . . . . . .                 ",
"              . . . . . v w a x y ! ! ! z . . . . . . . .               ",
"            . . . . . . A a B C D ! ! E F G H I J . . . . .             ",
"            . K K L M N 4 a O . . . . P Q R S T U . . . . .             ",
"          . . . . V K W . . . . ! ! ! ! . . X T G . . . . . .           ",
"          . . . . Y K Z a a . . ! ! ! ! . `  .T ... . . . . .           ",
"        . . . . +.@.#.$.a a . . ! ! ! ! %.&.T *.` . . . . . . .         ",
"        . . . . =.K -.. a a . . ! ! ! ! ;.T >.,.. . . . . . . .         ",
"      . . . . . L K '.. . . . . . . . . ).T !.. . . . . . . . . .       ",
"      . . . . . . . . . . . . . . . . . . . . . . . . . . . . . .       ",
"    . . . . . . K K . . . . . . . . . . T T . . . . . . . . . . . .     ",
"    . . . . . . K K . . . . . . . . . . T T . . . . . . . . . . . .     ",
"  . . . . . . . . . . . . . . . . . . . . . . . . . . . . . . . . . .   ",
"                                                                        ",
"                                                                        ",
"                                                                        ",
"                                                                        "};
