/* XPM */
static char * icon_skull_xpm[] = {
"36 36 4 1",
" 	c None",
".	c #000000",
"+	c #FFFFFF",
"@	c #808080",
"....................................",
"....++........................++....",
"...++++......................++++...",
"..++++........................++++..",
".++++++......................++++++.",
".+++++++....................+++++++.",
"..+.+++++..................+++++.+..",
".....+++++.....++++++.....+++++.....",
"......+++++...++++++++...+++++......",
".......+++++.++++++++++.+++++.......",
"........++++@++++++++++@++++........",
".........+++@++++++++++@+++.........",
"..........+@++++++++++++@+..........",
"...........@++...++...++@...........",
"............++...++...++............",
"............++...++...++............",
"............++++++++++++............",
".............++++++++++.............",
".............++++++++++.............",
"..............+++..+++..............",
".............@++++++++@.............",
"............+@++++++++@+............",
"...........++@++++++++@++...........",
"..........+++@+.+..+.+@+++..........",
".........++++@+.+@@+.+@++++.........",
"........+++++..........+++++........",
".......+++++............+++++.......",
"......+++++..............+++++......",
".....+++++................+++++.....",
"..+.+++++..................+++++.+..",
".+++++++....................+++++++.",
".++++++......................++++++.",
"..++++........................++++..",
"...++++......................++++...",
"....++........................++....",
"...................................."};
